<?xml version="1.0" encoding="utf-8"?>
<svg version="1.1" xmlns:xlink="http://www.w3.org/1999/xlink" width="24px" height="22px" xmlns="http://www.w3.org/2000/svg">
  <g transform="matrix(1 0 0 1 -1146 -635 )">
    <path d="M 1.7142857142857142 11  C 3.205357142857143 13.81547619047619  5.111607142857143 15.861607142857142  7.433035714285715 17.138392857142858  L 8.477678571428571 14.830357142857142  C 7.700892857142857 14.142857142857142  7.09375 13.27529761904762  6.65625 12.227678571428571  C 6.218750000000001 11.180059523809524  6 10.072420634920633  6 8.904761904761905  C 6 7.584325396825397  6.272321428571429 6.356646825396823  6.816964285714285 5.22172619047619  C 4.772321428571429 6.498511904761905  3.071428571428572 8.424603174603174  1.7142857142857142 11  Z M 12.455357142857142 5.270833333333334  C 12.580357142857144 5.118055555555552  12.642857142857142 4.932539682539682  12.642857142857142 4.714285714285714  C 12.642857142857142 4.496031746031745  12.580357142857144 4.310515873015873  12.455357142857142 4.157738095238095  C 12.330357142857146 4.0049603174603154  12.178571428571427 3.9285714285714293  12 3.9285714285714293  C 10.883928571428573 3.9285714285714293  9.926339285714286 4.416914682539682  9.127232142857142 5.39360119047619  C 8.328125 6.370287698412699  7.928571428571429 7.540674603174603  7.928571428571429 8.904761904761905  C 7.928571428571429 9.123015873015872  7.991071428571431 9.308531746031745  8.116071428571429 9.461309523809524  C 8.241071428571429 9.614087301587299  8.392857142857144 9.69047619047619  8.571428571428571 9.69047619047619  C 8.75 9.69047619047619  8.901785714285715 9.614087301587299  9.026785714285715 9.461309523809524  C 9.151785714285715 9.308531746031745  9.214285714285715 9.123015873015872  9.214285714285715 8.904761904761905  C 9.214285714285715 7.96626984126984  9.486607142857142 7.164186507936508  10.03125 6.498511904761905  C 10.575892857142858 5.832837301587299  11.232142857142858 5.499999999999997  12 5.5  C 12.178571428571427 5.499999999999997  12.330357142857146 5.423611111111109  12.455357142857142 5.270833333333334  Z M 17.29017857142857 1.1458333333333341  C 17.433035714285715 1.2549603174603154  17.504464285714285 1.4022817460317447  17.504464285714285 1.5877976190476195  C 17.504464285714285 1.6641865079365057  17.5 1.7132936507936471  17.49107142857143 1.7351190476190488  C 16.54464285714286 3.797619047619049  15.13392857142857 6.891369047619049  13.25892857142857 11.01636904761905  C 11.383928571428573 15.14136904761905  9.977678571428573 18.2296626984127  9.040178571428571 20.28125  L 8.383928571428571 21.73809523809524  C 8.294642857142858 21.91269841269841  8.169642857142858 22  8.008928571428571 22  C 7.901785714285715 22  7.303571428571429 21.618055555555557  6.214285714285715 20.854166666666664  C 6.071428571428573 20.745039682539684  6 20.592261904761905  6 20.395833333333336  C 6 20.264880952380953  6.196428571428572 19.79017857142857  6.589285714285715 18.97172619047619  C 5.3125 18.262400793650794  4.136160714285715 17.31845238095238  3.0602678571428577 16.139880952380953  C 1.984375 14.961309523809524  1.0535714285714288 13.624503968253968  0.26785714285714285 12.129464285714285  C 0.08928571428571427 11.791170634920633  0 11.414682539682538  0 11  C 0 10.585317460317459  0.08928571428571427 10.208829365079364  0.26785714285714285 9.870535714285715  C 1.6339285714285716 7.306051587301587  3.3303571428571432 5.28174603174603  5.357142857142858 3.797619047619049  C 7.383928571428573 2.3134920634920624  9.598214285714286 1.5714285714285707  12 1.5714285714285707  C 12.794642857142858 1.5714285714285707  13.598214285714288 1.6641865079365057  14.410714285714286 1.8497023809523805  L 15.13392857142857 0.261904761904761  C 15.223214285714285 0.08730158730158699  15.348214285714286 0  15.50892857142857 0  C 15.55357142857143 0  15.633928571428573 0.03273809523809512  15.75 0.09821428571428537  C 15.866071428571429 0.1636904761904756  16.004464285714285 0.24826388888888618  16.16517857142857 0.3519345238095244  C 16.325892857142858 0.4556051587301577  16.473214285714285 0.5565476190476195  16.607142857142858 0.6547619047619049  C 16.74107142857143 0.7529761904761902  16.88169642857143 0.8539186507936471  17.029017857142858 0.9575892857142854  C 17.176339285714285 1.0612599206349187  17.263392857142858 1.124007936507935  17.29017857142857 1.1458333333333341  Z M 17.892857142857142 7.529761904761905  C 17.964285714285715 8.020833333333334  18 8.479166666666666  18 8.904761904761905  C 18 10.421626984126984  17.64732142857143 11.804811507936506  16.941964285714285 13.054315476190476  C 16.236607142857146 14.303819444444443  15.303571428571429 15.201388888888886  14.142857142857142 15.74702380952381  L 17.892857142857142 7.529761904761905  Z M 23.732142857142858 9.870535714285715  C 23.91071428571429 10.241567460317459  24 10.618055555555554  24 11  C 24 11.381944444444443  23.91071428571429 11.758432539682538  23.732142857142858 12.129464285714285  C 23.38392857142857 12.82787698412698  22.89732142857143 13.61904761904762  22.27232142857143 14.50297619047619  C 20.933035714285715 16.37996031746032  19.38169642857143 17.836805555555557  17.61830357142857 18.873511904761905  C 15.854910714285717 19.910218253968253  13.982142857142858 20.42857142857143  12 20.42857142857143  L 12.99107142857143 18.267857142857142  C 14.883928571428573 18.07142857142857  16.636160714285715 17.323908730158728  18.247767857142858 16.02529761904762  C 19.859375 14.726686507936506  21.205357142857146 13.051587301587299  22.285714285714285 11  C 21.258928571428573 9.046626984126984  20 7.442460317460318  18.50892857142857 6.1875  L 19.35267857142857 4.354166666666666  C 20.20089285714286 5.052579365079362  21.015625 5.887400793650791  21.796875 6.858630952380951  C 22.578125 7.829861111111109  23.223214285714285 8.833829365079364  23.732142857142858 9.870535714285715  Z " fill-rule="nonzero" fill="#707070" stroke="none" transform="matrix(1 0 0 1 1146 635 )" />
  </g>
</svg>