<?xml version="1.0" encoding="utf-8"?>
<svg version="1.1" xmlns:xlink="http://www.w3.org/1999/xlink" width="25px" height="19px" xmlns="http://www.w3.org/2000/svg">
  <g transform="matrix(1 0 0 1 -1146 -636 )">
    <path d="M 18.561662946428573 14.884982638888888  C 20.426432291666668 13.549045138888888  21.97730654761905 11.754050925925922  23.214285714285715 9.5  C 21.800595238095237 6.905092592592593  20.028831845238095 4.964409722222222  17.898995535714285 3.677951388888888  C 18.466331845238095 4.821469907407405  18.75 6.0584490740740735  18.75 7.3888888888888875  C 18.75 9.423032407407405  18.138485863095237 11.163049768518517  16.915457589285715 12.608940972222221  C 15.692429315476192 14.054832175925922  14.220610119047619 14.777777777777779  12.5 14.777777777777779  C 10.779389880952381 14.777777777777779  9.30757068452381 14.054832175925922  8.084542410714286 12.608940972222221  C 6.861514136904763 11.163049768518517  6.25 9.423032407407405  6.25 7.3888888888888875  C 6.25 6.0584490740740735  6.533668154761905 4.821469907407405  7.1010044642857135 3.677951388888888  C 4.971168154761905 4.964409722222222  3.1994047619047623 6.905092592592593  1.7857142857142856 9.5  C 3.0226934523809526 11.754050925925922  4.573567708333334 13.549045138888888  6.438337053571429 14.884982638888888  C 8.303106398809526 16.22092013888889  10.323660714285714 16.88888888888889  12.5 16.88888888888889  C 14.676339285714285 16.88888888888889  16.696893601190478 16.22092013888889  18.561662946428573 14.884982638888888  Z M 12.974330357142858 3.7274305555555562  C 13.104538690476192 3.5734953703703707  13.169642857142858 3.3865740740740735  13.169642857142858 3.166666666666666  C 13.169642857142858 2.9467592592592586  13.104538690476192 2.759837962962961  12.974330357142858 2.605902777777778  C 12.844122023809526 2.451967592592591  12.686011904761903 2.374999999999998  12.5 2.375  C 11.337425595238097 2.374999999999998  10.339936755952381 2.8670428240740735  9.507533482142858 3.851128472222222  C 8.675130208333334 4.83521412037037  8.258928571428571 6.014467592592593  8.258928571428571 7.3888888888888875  C 8.258928571428571 7.608796296296295  8.324032738095239 7.795717592592593  8.454241071428571 7.949652777777778  C 8.584449404761905 8.103587962962962  8.742559523809526 8.180555555555555  8.928571428571429 8.180555555555555  C 9.114583333333334 8.180555555555555  9.272693452380953 8.103587962962962  9.402901785714286 7.949652777777778  C 9.533110119047619 7.795717592592593  9.598214285714286 7.608796296296295  9.598214285714286 7.3888888888888875  C 9.598214285714286 6.443287037037036  9.88188244047619 5.635127314814815  10.44921875 4.964409722222222  C 11.01655505952381 4.29369212962963  11.70014880952381 3.958333333333332  12.5 3.958333333333334  C 12.686011904761903 3.958333333333332  12.844122023809526 3.881365740740739  12.974330357142858 3.7274305555555562  Z M 24.720982142857142 8.361979166666666  C 24.90699404761905 8.74681712962963  25 9.126157407407405  25 9.5  C 25 9.87384259259259  24.90699404761905 10.25318287037037  24.720982142857142 10.638020833333332  C 23.418898809523814 13.166956018518517  21.668061755952387 15.192853009259261  19.468470982142858 16.715711805555557  C 17.268880208333336 18.23857060185185  14.94605654761905 19  12.5 19  C 10.053943452380953 19  7.731119791666667 18.23582175925926  5.531529017857143 16.70746527777778  C 3.331938244047619 15.179108796296296  1.5811011904761907 13.155960648148147  0.27901785714285715 10.638020833333332  C 0.09300595238095237 10.25318287037037  0 9.87384259259259  0 9.5  C 0 9.126157407407405  0.09300595238095237 8.74681712962963  0.27901785714285715 8.361979166666666  C 1.5811011904761907 5.844039351851851  3.331938244047619 3.8208912037037024  5.531529017857143 2.292534722222222  C 7.731119791666667 0.7641782407407393  10.053943452380953 0  12.5 0  C 14.94605654761905 0  17.268880208333336 0.7641782407407393  19.468470982142858 2.292534722222222  C 21.668061755952387 3.8208912037037024  23.418898809523814 5.844039351851851  24.720982142857142 8.361979166666666  Z " fill-rule="nonzero" fill="#707070" stroke="none" transform="matrix(1 0 0 1 1146 636 )" />
  </g>
</svg>