<?xml version="1.0" encoding="utf-8"?>
<svg version="1.1" xmlns:xlink="http://www.w3.org/1999/xlink" width="27px" height="18px" xmlns="http://www.w3.org/2000/svg">
  <defs>
    <mask fill="white" id="clip188">
      <path d="M 0.2758316778235331 8.361407937435805  C 0.2758316778235331 8.361407937435805  8.8075375799866 0.2707204245646843  8.8075375799866 0.2707204245646843  C 9.188173238900227 -0.09024014152156146  9.787414253152367 -0.09024014152156146  10.168051830742396 0.2707204245646843  C 10.535826601725274 0.6194839656224378  10.535826601725274 1.1999458933292741  10.168051830742396 1.5478987936642752  C 10.168051830742396 1.5478987936642752  3.2694731275956763 8.089875912810237  3.2694731275956763 8.089875912810237  C 3.2694731275956763 8.089875912810237  26.03383547752231 8.089875912810237  26.03383547752231 8.089875912810237  C 26.564499159770744 8.089875912810237  27.000000329772508 8.489860435488351  27.000000329772508 8.993089887424867  C 27.000000329772508 9.496318380023254  26.564499159770744 9.90930769043821  26.03383547752231 9.90930769043821  C 26.03383547752231 9.90930769043821  3.2694731275956763 9.90930769043821  3.2694731275956763 9.90930769043821  C 3.2694731275956763 9.90930769043821  10.168051830742396 16.43909258124635  10.168051830742396 16.43909258124635  C 10.535826601725274 16.800055066008863  10.535826601725274 17.381327634438453  10.168051830742396 17.72927957543531  C 9.787414253152367 18.090238222845297  9.188173238900227 18.090238222845297  8.8075375799866 17.72927957543531  C 8.8075375799866 17.72927957543531  0.2758316778235331 9.6385891845498  0.2758316778235331 9.6385891845498  C -0.09194388761129123 9.289821806139503  -0.09194388761129123 8.709362756447067  0.2758316778235331 8.361407937435805  Z " fill-rule="evenodd" />
    </mask>
  </defs>
  <g transform="matrix(1 0 0 1 -610 -171 )">
    <path d="M 0.2758316778235331 8.361407937435805  C 0.2758316778235331 8.361407937435805  8.8075375799866 0.2707204245646843  8.8075375799866 0.2707204245646843  C 9.188173238900227 -0.09024014152156146  9.787414253152367 -0.09024014152156146  10.168051830742396 0.2707204245646843  C 10.535826601725274 0.6194839656224378  10.535826601725274 1.1999458933292741  10.168051830742396 1.5478987936642752  C 10.168051830742396 1.5478987936642752  3.2694731275956763 8.089875912810237  3.2694731275956763 8.089875912810237  C 3.2694731275956763 8.089875912810237  26.03383547752231 8.089875912810237  26.03383547752231 8.089875912810237  C 26.564499159770744 8.089875912810237  27.000000329772508 8.489860435488351  27.000000329772508 8.993089887424867  C 27.000000329772508 9.496318380023254  26.564499159770744 9.90930769043821  26.03383547752231 9.90930769043821  C 26.03383547752231 9.90930769043821  3.2694731275956763 9.90930769043821  3.2694731275956763 9.90930769043821  C 3.2694731275956763 9.90930769043821  10.168051830742396 16.43909258124635  10.168051830742396 16.43909258124635  C 10.535826601725274 16.800055066008863  10.535826601725274 17.381327634438453  10.168051830742396 17.72927957543531  C 9.787414253152367 18.090238222845297  9.188173238900227 18.090238222845297  8.8075375799866 17.72927957543531  C 8.8075375799866 17.72927957543531  0.2758316778235331 9.6385891845498  0.2758316778235331 9.6385891845498  C -0.09194388761129123 9.289821806139503  -0.09194388761129123 8.709362756447067  0.2758316778235331 8.361407937435805  Z " fill-rule="nonzero" fill="#ffffff" stroke="none" transform="matrix(1 0 0 1 610 171 )" />
    <path d="M 0.2758316778235331 8.361407937435805  C 0.2758316778235331 8.361407937435805  8.8075375799866 0.2707204245646843  8.8075375799866 0.2707204245646843  C 9.188173238900227 -0.09024014152156146  9.787414253152367 -0.09024014152156146  10.168051830742396 0.2707204245646843  C 10.535826601725274 0.6194839656224378  10.535826601725274 1.1999458933292741  10.168051830742396 1.5478987936642752  C 10.168051830742396 1.5478987936642752  3.2694731275956763 8.089875912810237  3.2694731275956763 8.089875912810237  C 3.2694731275956763 8.089875912810237  26.03383547752231 8.089875912810237  26.03383547752231 8.089875912810237  C 26.564499159770744 8.089875912810237  27.000000329772508 8.489860435488351  27.000000329772508 8.993089887424867  C 27.000000329772508 9.496318380023254  26.564499159770744 9.90930769043821  26.03383547752231 9.90930769043821  C 26.03383547752231 9.90930769043821  3.2694731275956763 9.90930769043821  3.2694731275956763 9.90930769043821  C 3.2694731275956763 9.90930769043821  10.168051830742396 16.43909258124635  10.168051830742396 16.43909258124635  C 10.535826601725274 16.800055066008863  10.535826601725274 17.381327634438453  10.168051830742396 17.72927957543531  C 9.787414253152367 18.090238222845297  9.188173238900227 18.090238222845297  8.8075375799866 17.72927957543531  C 8.8075375799866 17.72927957543531  0.2758316778235331 9.6385891845498  0.2758316778235331 9.6385891845498  C -0.09194388761129123 9.289821806139503  -0.09194388761129123 8.709362756447067  0.2758316778235331 8.361407937435805  Z " stroke-width="2" stroke="#ffffff" fill="none" transform="matrix(1 0 0 1 610 171 )" mask="url(#clip188)" />
  </g>
</svg>