<svg id="pc" xmlns="http://www.w3.org/2000/svg" width="58.745" height="41.998" viewBox="0 0 58.745 41.998">
  <path id="_6579064_and_computer_computers_hardware_laptop_icon" data-name="6579064_and_computer_computers_hardware_laptop_icon" d="M60.55,45.059l-4.2-10.5a1.837,1.837,0,0,0-1.89-1.26V8.1A1.984,1.984,0,0,0,52.36,6h-42a1.984,1.984,0,0,0-2.1,2.1V33.3a1.837,1.837,0,0,0-1.89,1.26l-4.2,10.5a1.973,1.973,0,0,0,.21,1.89c.42.42,1.05,1.05,1.68,1.05h54.6a2.592,2.592,0,0,0,1.68-.84A1.891,1.891,0,0,0,60.55,45.059ZM12.462,10.2h37.8V33.3h-37.8Z" transform="translate(-2.034 -6)"/>
  <g id="Group_15596" data-name="Group 15596" transform="translate(22.397 7.039)">
    <path id="Path_263016" data-name="Path 263016" d="M1903.063-289.807v3.36c0,.082,0,.084.079.066a1.088,1.088,0,0,1,.162-.036c.024,0,.03-.019.031-.04s0-.042,0-.063q0-2.484,0-4.968a.306.306,0,0,1,.035-.142c.179-.353.356-.707.535-1.06.016-.031.025-.069.075-.072.09-.006.107.007.107.1q0,1.541,0,3.083c0,.794,0,1.589,0,2.383a.886.886,0,0,1-.177.554,13.1,13.1,0,0,0-.735,1.086.482.482,0,0,0-.076.264c0,1.477,0,2.955,0,4.432a.644.644,0,0,1-.079.266q-.166.382-.339.761c-.026.058-.044.124-.127.138a.113.113,0,0,1-.142-.111q0-2.651,0-5.3c0-.058.017-.135-.012-.17s-.11-.009-.168-.012a2.351,2.351,0,0,1-.557-.107,5.021,5.021,0,0,1-.959-.416c-.174-.1-.346-.2-.51-.308-.236-.161-.469-.327-.688-.512-.082-.069-.161-.142-.241-.213a.045.045,0,0,0-.071,0,7.141,7.141,0,0,1-.626.446,5.145,5.145,0,0,1-.968.5c-.172.064-.339.14-.513.2a1.319,1.319,0,0,1-.443.047c-.075,0-.119-.065-.165-.111a1,1,0,0,1-.227-.5.527.527,0,0,1,.008-.1c0-1.824,0-3.648-.005-5.472a.931.931,0,0,1,.129-.417c.051-.108.111-.212.164-.319.045-.091.085-.184.131-.274a.144.144,0,0,1,.158-.067c.081.023.1.046.1.132q0,2.79,0,5.579a1.692,1.692,0,0,0,.069.423.208.208,0,0,0,.233.124,3.183,3.183,0,0,0,.577-.192c.155-.064.306-.135.454-.211a4.092,4.092,0,0,0,.46-.285c.051-.035,0-.05-.018-.06-.11-.078-.222-.154-.334-.229a4.859,4.859,0,0,0-.754-.416,1.01,1.01,0,0,0-.158-.062c-.034-.008-.038-.025-.04-.051a1.207,1.207,0,0,1,.13-.606,3.105,3.105,0,0,1,.339-.587,1.819,1.819,0,0,1,.977-.694,2.923,2.923,0,0,1,.854-.1,4.681,4.681,0,0,1,1.049.156,2.641,2.641,0,0,1,.523.185c.194.1.38.209.567.318.072.042.092.091.05.195a3.655,3.655,0,0,1-.219.436.822.822,0,0,1-.164.243q-.071.059-.144.116c-.166.129-.335.254-.5.388s-.319.253-.485.371c-.082.058-.167.114-.25.171-.061.042-.062.046,0,.076a7.209,7.209,0,0,1,.83.484c.259.171.524.335.8.48a1.72,1.72,0,0,0,.58.193c.033,0,.041-.01.041-.037s0-.071,0-.107q0-2.72,0-5.441a1.039,1.039,0,0,1,.086-.479c.127-.26.237-.529.354-.793a.111.111,0,0,1,.1-.08c.068,0,.108.023.108.091Zm-4.377.856c.046.04.085.079.13.112.187.137.382.264.576.392a1.949,1.949,0,0,1,.312.265c.053.053.064.06.115,0,0,0,0-.013.012-.017a2.409,2.409,0,0,0,.418-.278c.083-.062.157-.137.235-.206.013-.012.036-.026,0-.04l-.145-.062a3.126,3.126,0,0,0-.521-.173,3.538,3.538,0,0,0-.507-.066,2.2,2.2,0,0,0-.459.03A.466.466,0,0,0,1898.686-288.951Z" transform="translate(-1892.137 293.271)"/>
    <path id="Path_263017" data-name="Path 263017" d="M1754.319,468.39c-.095.171-.19.341-.283.512-.038.069-.034.083.035.106a2.168,2.168,0,0,0,.4.093c.132.019.264.044.4.059.115.013.228.034.342.054l.45.077c.164.029.328.059.492.087.128.022.256.046.385.06.092.01.186.014.278.029a2.775,2.775,0,0,1,.578.14,3.553,3.553,0,0,1,.443.193,2.44,2.44,0,0,1,.724.536,1.1,1.1,0,0,1,.252.465,1.049,1.049,0,0,1,.017.3,1.909,1.909,0,0,1-.043.294,3.929,3.929,0,0,1-.165.461,4.225,4.225,0,0,1-.18.423.925.925,0,0,1-.258.362.139.139,0,0,1-.155,0c-.049-.046-.019-.086,0-.132a.808.808,0,0,0,.074-.481,1.639,1.639,0,0,0-.211-.612.929.929,0,0,0-.373-.364,3.3,3.3,0,0,0-.721-.259c-.343-.091-.692-.155-1.037-.235-.22-.051-.443-.087-.665-.131-.107-.021-.213-.046-.319-.065s-.2-.031-.3-.048-.219-.038-.328-.055-.22-.032-.33-.045a1.042,1.042,0,0,1-.578-.222.333.333,0,0,1-.038-.463c.08-.124.174-.239.252-.365.166-.267.318-.541.473-.814l.117-.209.159-.292a.075.075,0,0,0,.035-.034c.181-.319.364-.636.546-.954.227-.4.453-.8.711-1.178a3.165,3.165,0,0,1,.354-.46.387.387,0,0,1,.337-.12.705.705,0,0,1,.446.24,3.194,3.194,0,0,0,.463.412,1.068,1.068,0,0,0,.549.2,1.367,1.367,0,0,0,.316,0,.155.155,0,0,0,.062-.025,1.68,1.68,0,0,0,.285-.279c.157-.17.3-.35.475-.506a4.826,4.826,0,0,1,.5-.416.825.825,0,0,1,.445-.163,1.319,1.319,0,0,1,.813.228.42.42,0,0,1,.2.313,5.289,5.289,0,0,1,.008.666c0,.151-.016.3-.026.455-.008.124,0,.247-.01.37a.426.426,0,0,1-.111.216c-.093.133-.185.267-.284.395-.078.1-.164.2-.252.292a.2.2,0,0,1-.266.008c-.136-.1-.278-.2-.417-.293a2.683,2.683,0,0,1-.474-.351.057.057,0,0,0-.046-.015,2.972,2.972,0,0,0-.767.065,4.778,4.778,0,0,0-.5.174,1.879,1.879,0,0,1-.515.117,1.3,1.3,0,0,1-.286-.009.75.75,0,0,1-.278-.105,1.735,1.735,0,0,1-.564-.584.5.5,0,0,0-.286-.231c-.11-.033-.152-.019-.2.083-.161.311-.34.611-.513.915-.113.2-.223.4-.333.6-.042.076-.086.15-.129.225Zm5.376-2.467c.068.051.124.1.181.142a1.042,1.042,0,0,0,.353.217c.043.012.062-.007.055-.052a.225.225,0,0,0-.151-.18c-.07-.028-.14-.057-.213-.078A.779.779,0,0,0,1759.7,465.923Z" transform="translate(-1750.8 -455.014)"/>
    <path id="Path_263018" data-name="Path 263018" d="M1676.561,307.264l-.159.292a1.123,1.123,0,0,1-.227-.3,3.181,3.181,0,0,1-.326-.929,3.553,3.553,0,0,1-.065-.454,3.176,3.176,0,0,1,0-.378,2.88,2.88,0,0,1,.087-.6,3.26,3.26,0,0,1,.231-.639,2.893,2.893,0,0,1,.211-.38c.014-.02.006-.032-.009-.041a.088.088,0,0,0-.04-.015,2.34,2.34,0,0,0-.786.039.977.977,0,0,0-.334.166c-.132.1-.248.217-.373.324a.421.421,0,0,0-.078.1.149.149,0,0,1-.175.072c-.025-.007-.023-.025-.024-.044a.472.472,0,0,1,.087-.294c.114-.17.193-.36.293-.539a2.043,2.043,0,0,1,.238-.358.638.638,0,0,1,.325-.19,4.93,4.93,0,0,1,.526-.12,3.161,3.161,0,0,1,.6-.048,4.128,4.128,0,0,0,.565-.012,1.136,1.136,0,0,0,.592-.253,2.832,2.832,0,0,1,.478-.316,3.123,3.123,0,0,1,.452-.194,5.435,5.435,0,0,1,.758-.173,4.6,4.6,0,0,1,.922-.044,1.514,1.514,0,0,1,.483.071,1.246,1.246,0,0,1,.29.161,1.1,1.1,0,0,1,.271.283.754.754,0,0,1,.09.245,2,2,0,0,1,.025.524.433.433,0,0,1-.124.276c-.158.175-.32.346-.473.525q-.175.2-.355.4a1.873,1.873,0,0,0-.127.144.174.174,0,0,1-.181.065c-.165-.02-.33-.039-.494-.061-.135-.018-.268-.048-.4-.061-.158-.015-.313-.052-.472-.066-.129-.011-.257-.036-.385-.056-.158-.026-.317-.051-.474-.082-.135-.027-.27-.053-.4-.082-.164-.036-.326-.078-.488-.119a.1.1,0,0,0-.094.018,5.305,5.305,0,0,0-.43.357,1.385,1.385,0,0,0-.192.248,2.133,2.133,0,0,0-.288.676,2.611,2.611,0,0,0-.048.4,1.855,1.855,0,0,0,0,.354,2.18,2.18,0,0,0,.163.585,2.072,2.072,0,0,0,.285.464A.7.7,0,0,0,1676.561,307.264Zm2.036-4.057c.3.036.588.1.88.158q.2.042.4.088c.178.041.359.069.539.1a.361.361,0,0,0,.175.012c-.011-.016-.018-.028-.026-.038s-.022-.025-.032-.037a1.22,1.22,0,0,0-.489-.333,1.408,1.408,0,0,0-.724-.125A2.6,2.6,0,0,0,1678.6,303.207Z" transform="translate(-1673.161 -294.419)"/>
    <path id="Path_263019" data-name="Path 263019" d="M2149.777,662.983l0,.006c-.139.2-.28.4-.417.607-.073.109-.145.221-.226.325-.02.026,0,.034.012.044.191.149.364.318.549.474.057.048.056.067.014.132-.125.192-.255.381-.378.574-.071.112-.143.224-.221.332a.048.048,0,0,1-.083.008c-.144-.134-.285-.271-.429-.4s-.277-.252-.417-.377c-.036-.032-.05-.054-.011-.1.171-.2.337-.408.5-.613a1.14,1.14,0,0,1,.089-.1c.03-.028.024-.046,0-.067-.07-.053-.14-.107-.209-.161-.107-.084-.213-.168-.318-.255a.491.491,0,0,0-.055-.041.046.046,0,0,1-.013-.07c.058-.1.119-.188.178-.283.079-.129.157-.259.236-.388s.148-.24.219-.362c.024-.042.043-.048.081-.017.11.089.222.176.333.263l.362.28.195.152C2149.774,662.946,2149.79,662.951,2149.777,662.983Z" transform="translate(-2140.836 -650.171)"/>
    <path id="Path_263020" data-name="Path 263020" d="M1847.84,653.211l.16-.283a2.206,2.206,0,0,0,.566.3,2.73,2.73,0,0,0,.6.148,3.3,3.3,0,0,0,.523.031,1.538,1.538,0,0,0,.889-.264c.136-.1.268-.2.4-.306.075-.059.142-.129.217-.187a.091.091,0,0,0,.038-.078,1.5,1.5,0,0,1,.1-.487.479.479,0,0,1,.285-.3.414.414,0,0,1,.373.042.335.335,0,0,1,.088.254.761.761,0,0,1-.176.339,3.613,3.613,0,0,1-.514.523,4.972,4.972,0,0,1-.6.462,2.468,2.468,0,0,1-.688.312,2.337,2.337,0,0,1-.292.044,3.492,3.492,0,0,1-.525,0,2.078,2.078,0,0,1-.456-.076,3.333,3.333,0,0,1-.842-.369A1.447,1.447,0,0,0,1847.84,653.211Z" transform="translate(-1844.321 -639.835)"/>
    <path id="Path_263021" data-name="Path 263021" d="M1626.037,895.6a.66.66,0,0,0,.21-.057c.067-.026.122-.01.143.059.013.043-.034.047-.052.051-.167.031-.328.086-.492.126a.079.079,0,0,1-.1-.034c-.017-.033-.04-.056,0-.1a1.14,1.14,0,0,0,.174-.241c-.1.026-.2.048-.289.074a.067.067,0,0,1-.082-.019.092.092,0,0,1-.024-.1.793.793,0,0,1,.119-.154,3.091,3.091,0,0,1,.214-.268c.033-.034.047-.037.069.005a.218.218,0,0,0,.011.021c.068.1.068.1-.01.187-.045.05-.088.1-.137.161a.816.816,0,0,0,.183-.038.944.944,0,0,0,.123-.035c.052-.014.056.04.081.062s.007.052-.009.078a2.545,2.545,0,0,0-.151.213c-.008.005-.022.011-.01.021S1626.035,895.618,1626.037,895.6Z" transform="translate(-1624.807 -879.921)"/>
    <path id="Path_263022" data-name="Path 263022" d="M1580.427,605.177c.083.013.139.052.206.064.027,0,.038,0,.044-.024a1.3,1.3,0,0,0,.047-.135c0-.026,0-.034-.026-.041a.928.928,0,0,0-.165-.051c-.045,0-.061-.032-.038-.074s.006-.085.041-.108.066.02.1.03c.142.041.281.091.423.133.038.011.039.036.026.055a.21.21,0,0,0-.032.086c-.006.037-.03.039-.061.028s-.071-.026-.1-.039c-.054-.022-.066.006-.079.043-.005.014-.007.028-.011.042-.029.107-.029.107.085.137l.049.012c.006,0,.014,0,.018,0,.024.014.031.032.01.054s.011.136-.073.115c-.165-.042-.324-.106-.486-.159-.038-.012-.046-.033-.031-.066S1580.383,605.189,1580.427,605.177Z" transform="translate(-1580.217 -593.473)"/>
    <path id="Path_263023" data-name="Path 263023" d="M1571.615,776.664c-.079.015-.157.029-.235.046s-.08.013-.095-.057.028-.075.073-.081c.09-.013.18-.02.27-.037a.973.973,0,0,0,.182-.035c.024-.009.061-.017.071.016s.032.074,0,.111c-.082.107-.14.231-.233.331a.016.016,0,0,0,0,.023c.007.007.015,0,.023,0,.087-.02.175-.037.261-.061.03-.008.037,0,.037.025a.136.136,0,0,0,.01.048c.015.039,0,.059-.045.067-.169.031-.341.046-.506.093-.039.011-.048-.009-.054-.038a.189.189,0,0,1,.066-.176c.074-.079.113-.181.182-.263Z" transform="translate(-1571.252 -762.999)"/>
    <path id="Path_263024" data-name="Path 263024" d="M2002.751,1074.07a.065.065,0,0,1,.065.038c.1.158.169.328.275.479a.05.05,0,0,1,.009.053.048.048,0,0,1-.048.021.127.127,0,0,0-.056,0c-.078.031-.1-.025-.124-.076-.013-.028-.016-.075-.052-.074-.124,0-.139.015-.159.094a.531.531,0,0,1-.012.055.1.1,0,0,1-.124.051c-.021-.013-.017-.033-.01-.055.059-.166.109-.335.153-.505C2002.681,1074.1,2002.694,1074.068,2002.751,1074.07Z" transform="translate(-1997.039 -1056.822)"/>
    <path id="Path_263025" data-name="Path 263025" d="M1830.693,1053.833h-.006c-.04,0-.081-.043-.119-.006s-.024.077-.036.116c-.026.081-.023.082-.1.06l-.024,0c-.09-.014-.1-.037-.06-.115a1.272,1.272,0,0,0,.079-.234,1.25,1.25,0,0,0,.065-.225c0-.037.049-.029.068-.018.072.042.156.047.23.082a.168.168,0,0,1,.1.158.192.192,0,0,1-.127.175Zm.009-.232a.041.041,0,0,0-.035-.051c-.026,0-.014.025-.02.038a.41.41,0,0,1-.034.084.029.029,0,0,0,0,.04c.014.015.027,0,.038-.007C1830.694,1053.684,1830.7,1053.64,1830.7,1053.6Z" transform="translate(-1827.025 -1036.408)"/>
    <path id="Path_263026" data-name="Path 263026" d="M1592.214,847.749c-.028.007-.042-.011-.049-.039s-.016-.051-.026-.076-.02-.037-.055-.026c-.119.036-.1.035-.052.14.014.032.049.064,0,.092s-.08.011-.1-.043c-.032-.078-.067-.156-.1-.234-.016-.039-.014-.06.041-.068a.481.481,0,0,0,.176-.062c.084-.05.18-.068.263-.118.049-.03.078-.02.1.042a1.075,1.075,0,0,0,.093.218c.01.019.03.05.009.062s-.056.046-.1.039-.023-.031-.029-.053l-.014-.046c-.023-.073-.059-.085-.121-.038a.029.029,0,0,0-.008.038.77.77,0,0,0,.036.075C1592.311,847.725,1592.3,847.746,1592.214,847.749Z" transform="translate(-1591.526 -832.912)"/>
    <path id="Path_263027" data-name="Path 263027" d="M1711.723,996.828a.481.481,0,0,1,.4.2c.017.021.038.055.015.072s-.054.061-.1.058c-.019,0-.021-.014-.021-.031a.136.136,0,0,0-.109-.151.2.2,0,0,0-.2.075.282.282,0,0,0-.08.184.145.145,0,0,0,.086.125.843.843,0,0,0,.123.038c.019,0,.034.009.033.029a.045.045,0,0,1-.027.043.133.133,0,0,1-.125.006.447.447,0,0,1-.235-.239.237.237,0,0,1,.02-.236C1711.572,996.9,1711.652,996.83,1711.723,996.828Z" transform="translate(-1709.661 -980.554)"/>
    <path id="Path_263028" data-name="Path 263028" d="M1568.993,684.654c.155.018.313.037.471.053.035,0,.029.025.027.043-.011.1-.024.2-.035.3,0,.043-.031.041-.063.038s-.058-.008-.055-.05a.558.558,0,0,1,.018-.116c.005-.018.022-.049-.014-.046s-.08-.036-.1.02a.21.21,0,0,0-.014.11c0,.023.006.063-.03.052s-.09.021-.087-.049a.188.188,0,0,1,.006-.08c.012-.025.017-.066,0-.074a.2.2,0,0,0-.132-.013c-.014,0-.009.023-.007.034.007.042-.027.083,0,.126.006.01,0,.022-.017.028-.047.024-.116-.014-.108-.064a1.882,1.882,0,0,0,.027-.248c0-.056.03-.071.08-.063A.226.226,0,0,0,1568.993,684.654Z" transform="translate(-1568.851 -672.315)"/>
    <path id="Path_263029" data-name="Path 263029" d="M1760.2,1033.979c-.012.107-.026.218-.037.329,0,.048,0,.1,0,.144s-.026.078-.085.053c-.1-.042-.11-.051-.092-.175.009-.06-.016-.077-.061-.092a.171.171,0,0,1-.048-.026c-.016-.012-.031-.014-.041,0-.021.038-.068.043-.093.079s-.1,0-.116-.032.013-.049.039-.068c.071-.053.139-.11.208-.166s.145-.12.22-.176a.077.077,0,0,1,.11.058C1760.206,1033.933,1760.2,1033.954,1760.2,1033.979Zm-.2.083c-.022.035-.069.041-.064.074s.055-.007.068.029C1760.031,1034.135,1760.017,1034.1,1760,1034.062Z" transform="translate(-1757.215 -1017.103)"/>
    <path id="Path_263030" data-name="Path 263030" d="M1614.21,551.038a.286.286,0,0,1,.075-.132.055.055,0,0,1,.067,0c.114.074.23.144.344.216.017.011.023,0,.029-.009a.18.18,0,0,0,.034-.064c.007-.053.038-.056.073-.039s.069.053.039.1c-.041.069-.079.14-.125.206-.026.037-.032.081-.067.116s-.044.039-.078.017a.065.065,0,0,1-.028-.1c.012-.021.045-.042.034-.06a.158.158,0,0,0-.074-.06,2.614,2.614,0,0,0-.295-.152A.039.039,0,0,1,1614.21,551.038Z" transform="translate(-1613.635 -540.248)"/>
    <path id="Path_263031" data-name="Path 263031" d="M1943.295,1077.005a2.648,2.648,0,0,1-.01.308c0,.015,0,.035-.02.03-.04-.012-.08.005-.119,0-.061-.011-.054-.06-.04-.1a.66.66,0,0,0,.01-.211c0-.054,0-.11,0-.163,0-.034-.006-.035-.031-.032a.085.085,0,0,1-.037,0c-.025-.01-.055.031-.066,0a.286.286,0,0,1-.008-.1c0-.021.012-.029.033-.027a.232.232,0,0,1,.056,0,1.047,1.047,0,0,0,.355.021c.034,0,.05.01.044.042s.017.077-.043.08c-.12.005-.12.006-.122.125C1943.3,1076.99,1943.3,1077,1943.295,1077.005Z" transform="translate(-1938.254 -1059.425)"/>
    <path id="Path_263032" data-name="Path 263032" d="M2067.374,1063.62a.819.819,0,0,0,.116-.044c.053-.029.072-.006.087.042s-.018.06-.057.071c-.074.02-.148.045-.222.067s-.078.018-.1-.059c-.041-.148-.076-.3-.132-.442-.019-.049,0-.066.041-.07a.173.173,0,0,0,.08-.028c.039-.025.065,0,.065.033a.979.979,0,0,0,.06.231A.858.858,0,0,0,2067.374,1063.62Z" transform="translate(-2060.775 -1046.037)"/>
    <path id="Path_263033" data-name="Path 263033" d="M1895.514,1071.536c.025,0,.041,0,.058,0,.049,0,.069.031.055.076a3.73,3.73,0,0,0-.1.489c-.008.042-.021.046-.058.037-.132-.031-.134-.03-.112-.163s.049-.276.076-.413C1895.446,1071.506,1895.493,1071.545,1895.514,1071.536Z" transform="translate(-1891.229 -1054.315)"/>
    <path id="Path_263034" data-name="Path 263034" d="M2274.048,571.572a.777.777,0,0,1,.224.049c.073.021.143.05.213.079a.225.225,0,0,1,.151.18c.007.044-.012.064-.055.052a1.042,1.042,0,0,1-.353-.217C2274.172,571.669,2274.116,571.623,2274.048,571.572Z" transform="translate(-2265.152 -560.663)"/>
    <path id="Path_263035" data-name="Path 263035" d="M1664.021,948.9c0,.019-.017.019-.025.011s0-.016.01-.021Z" transform="translate(-1662.791 -933.216)"/>
    <path id="Path_263036" data-name="Path 263036" d="M1852.671,1065.591c-.006.04-.009.083-.053.1-.011.005-.024.021-.038.006a.029.029,0,0,1,0-.04.409.409,0,0,0,.034-.084c.006-.013-.006-.041.02-.038A.041.041,0,0,1,1852.671,1065.591Z" transform="translate(-1848.994 -1048.399)"/>
    <path id="Path_263037" data-name="Path 263037" d="M1784.992,1051.167c.013.042.026.072.005.1-.013-.036-.065-.009-.069-.029S1784.97,1051.2,1784.992,1051.167Z" transform="translate(-1782.202 -1034.208)"/>
  </g>
</svg>
