<?xml version="1.0" encoding="utf-8"?>
<svg version="1.1" xmlns:xlink="http://www.w3.org/1999/xlink" width="23px" height="23px" xmlns="http://www.w3.org/2000/svg">
  <g transform="matrix(1 0 0 1 -26 -550 )">
    <path d="M 22.999999968158285 11.499999968158285  C 22.999999968158285 5.158645952342602  17.841353983973963 0  11.499999968158285 0  C 5.158645952342602 0  0 5.158645952342602  0 11.499999968158285  C 0 17.841353983973963  5.158645952342602 22.999999968158285  11.499999968158285 22.999999968158285  C 17.841353983973963 22.999999968158285  22.999999968158285 17.841353983973963  22.999999968158285 11.499999968158285  Z M 16.969238145842326 16.09326299560543  C 17.343881615640935 16.468080968399555  17.343881615640935 17.073646855247848  16.969238145842326 17.448288396836563  C 16.782356042799126 17.635170499879766  16.537041467091647 17.729224722148047  16.29172496317428 17.729224722148047  C 16.046410387466803 17.729224722148047  15.80091841644898 17.635170499879766  15.614210816401291 17.448288396836563  C 15.614210816401291 17.448288396836563  10.822487749595188 12.656739833025977  10.822487749595188 12.656739833025977  C 10.642273396369607 12.47757731829823  10.541725927279224 12.2340154853855  10.541725927279224 11.979224722148038  C 10.541725927279224 11.979224722148038  10.541725927279224 5.749999968158282  10.541725927279224 5.749999968158282  C 10.541725927279224 5.220062329819703  10.970939665322025 4.791725445226753  11.499999968158285 4.791725445226753  C 12.029060270994547 4.791725445226753  12.458274973142284 5.220062329819703  12.458274973142284 5.749999968158282  C 12.458274973142284 5.749999968158282  12.458274973142284 11.58247432590091  12.458274973142284 11.58247432590091  C 12.458274973142284 11.58247432590091  16.969238145842326 16.09326299560543  16.969238145842326 16.09326299560543  Z " fill-rule="nonzero" fill="#797979" stroke="none" transform="matrix(1 0 0 1 26 550 )" />
  </g>
</svg>