<svg id="Group_2322" data-name="Group 2322" xmlns="http://www.w3.org/2000/svg" width="51.924" height="51.924" viewBox="0 0 51.924 51.924">
  <circle id="Ellipse_1124" data-name="Ellipse 1124" cx="25.962" cy="25.962" r="25.962" fill="#fc0"/>
  <g id="direction" transform="translate(15.857 15.09)">
    <g id="Group_2299" data-name="Group 2299" transform="translate(0 0)">
      <path id="Path_1680" data-name="Path 1680" d="M20.929,9.868h0L11.372.311a1.058,1.058,0,0,0-1.5,0L.318,9.868a1.064,1.064,0,0,0,0,1.5l9.557,9.552v.005a1.064,1.064,0,0,0,1.5,0l9.557-9.557A1.059,1.059,0,0,0,20.929,9.868Zm-8.182,3.4V10.616H8.5V13.8H6.376V9.555A1.058,1.058,0,0,1,7.438,8.493h5.31V5.838l3.717,3.717Z" transform="translate(-0.007 0)" fill="#fff"/>
    </g>
  </g>
</svg>
