<?xml version="1.0" encoding="utf-8"?>
<svg version="1.1" xmlns:xlink="http://www.w3.org/1999/xlink" width="23px" height="32px" xmlns="http://www.w3.org/2000/svg">
  <g transform="matrix(1 0 0 1 -26 -491 )">
    <path d="M 23 11.90902147268753  C 22.99987658192294 5.342385313433438  17.84093153818163 0  11.499942147776379 0  C 5.158829339294068 0  0 5.342385313433438  0 11.909085328141325  C 0 15.582217242122859  1.8261632908357048 20.04053835312324  5.427911601802307 25.160175654145718  C 8.063705191775929 28.906933845397727  10.661015482596543 31.57906109241421  10.770309903462245 31.691063558361595  C 10.971203678395296 31.89681334287879  11.235511204047308 32  11.500127274891968 32  C 11.757045143180061 32  12.014163565843377 31.902627945376818  12.213460619404474 31.707312893249522  C 12.323001876424296 31.59999816885096  14.926891893478125 29.036057085367112  17.567637633793748 25.34104810510702  C 21.172278555941425 20.29722788685048  23 15.778092907572397  23 11.90902147268753  Z M 17.12210608923999 11.330958708645523  C 17.12210608923999 14.484651860418085  14.599918839199324 17.05040719003019  11.499942147776379 17.05040719003019  C 8.399803470127292 17.05040719003019  5.877755065423319 14.484651860418085  5.877755065423319 11.330958708645523  C 5.877755065423319 8.177265556872966  8.399872892795637 5.6115102272608555  11.499942147776379 5.6115102272608555  C 14.599988261867672 5.6115102272608555  17.12210608923999 8.177265556872966  17.12210608923999 11.330958708645523  Z " fill-rule="nonzero" fill="#797979" stroke="none" transform="matrix(1 0 0 1 26 491 )" />
  </g>
</svg>