<?xml version="1.0" encoding="utf-8"?>
<svg version="1.1" xmlns:xlink="http://www.w3.org/1999/xlink" width="23px" height="23px" xmlns="http://www.w3.org/2000/svg">
  <g transform="matrix(1 0 0 1 -26 -637 )">
    <path d="M 22.39687705557147 19.974741235278447  C 23.201039525830947 19.057680342066174  23.201039525830947 17.68208997063922  22.39687705557147 16.87966144698061  C 22.39687705557147 16.87966144698061  19.180405733681052 13.66994638395475  19.180405733681052 13.66994638395475  C 18.031666807660326 12.523617846460779  16.078808110306685 12.982193807465084  15.61931234581236 14.472374907613347  C 15.274692220694384 15.504114653168912  14.12595135381335 16.077277469328727  13.092083215018206 15.847967215823212  C 10.794604392546589 15.274804399663406  7.693005798742069 12.294354075744884  7.1186363357317015 9.887069473160526  C 6.774015240183573 8.855329727604957  7.463258401709983 7.709004095285339  8.497124599644822 7.365149595848144  C 9.990486562073993 6.906618180850556  10.449981356138162 4.957864024872334  9.301242430117426 3.811536455769815  C 9.301242430117426 3.811536455769815  6.0847696525817865 0.6018215743173493  6.0847696525817865 0.6018215743173493  C 5.165777638378065 -0.2006071914391164  3.7872888892498704 -0.2006071914391164  2.983170816169729 0.6018215743173493  C 2.983170816169729 0.6018215743173493  0.8005652069990793 2.779842708808143  0.8005652069990793 2.779842708808143  C -1.3820410693422973 5.072496394426007  1.030313089246241 11.148029411816719  6.429391233344993 16.535764338319595  C 11.828469620051285 21.923499264822475  17.916789227423685 24.445463688141572  20.21427096118575 22.152765940712715  C 20.21427096118575 22.152765940712715  22.39687705557147 19.974741235278447  22.39687705557147 19.974741235278447  Z " fill-rule="nonzero" fill="#797979" stroke="none" transform="matrix(1 0 0 1 26 637 )" />
  </g>
</svg>