<svg xmlns="http://www.w3.org/2000/svg" xmlns:xlink="http://www.w3.org/1999/xlink" width="16.674" height="20" viewBox="0 0 16.674 20">
  <defs>
    <clipPath id="clip-path">
      <rect id="Rectangle_111" data-name="Rectangle 111" width="16.674" height="20" fill="#3e3a3a"/>
    </clipPath>
  </defs>
  <g id="Group_35205" data-name="Group 35205" transform="translate(-510.055 47.885)">
    <g id="Group_285" data-name="Group 285" transform="translate(510.055 -47.884)">
      <g id="Group_284" data-name="Group 284" clip-path="url(#clip-path)">
        <path id="Path_249" data-name="Path 249" d="M406.642-27.889a1.08,1.08,0,0,0,1.082,1.078h1.155v2.767a1.176,1.176,0,0,0,1.177,1.176h.048a1.178,1.178,0,0,0,1.177-1.176v-2.767H412.9v2.767a1.178,1.178,0,0,0,1.176,1.176h.049a1.179,1.179,0,0,0,1.176-1.176v-2.767h1.156a1.082,1.082,0,0,0,1.081-1.078v-8.079H406.642Zm0,0" transform="translate(-403.678 42.588)" fill="#3e3a3a"/>
        <path id="Path_250" data-name="Path 250" d="M414.77-46.318l.918-1.418A.194.194,0,0,0,415.63-48a.185.185,0,0,0-.267.058l-.953,1.463a6.2,6.2,0,0,0-2.349-.456,6.2,6.2,0,0,0-2.351.456l-.951-1.463a.189.189,0,0,0-.271-.058.193.193,0,0,0-.058.267l.917,1.418a4.647,4.647,0,0,0-2.772,4.092c0,.107.008.214.017.321h10.934c.007-.107.016-.214.016-.321a4.645,4.645,0,0,0-2.772-4.092Zm-5.246,2.534a.525.525,0,0,1-.526-.526.521.521,0,0,1,.526-.522.521.521,0,0,1,.526.522.525.525,0,0,1-.526.526Zm5.069,0a.525.525,0,0,1-.526-.526.521.521,0,0,1,.526-.522.52.52,0,0,1,.526.522.524.524,0,0,1-.526.526Zm0,0" transform="translate(-403.649 47.952)" fill="#3e3a3a"/>
        <path id="Path_251" data-name="Path 251" d="M428.488-36.309h-.049a1.178,1.178,0,0,0-1.176,1.176v5.119a1.181,1.181,0,0,0,1.176,1.177h.049a1.179,1.179,0,0,0,1.176-1.177v-5.119a1.18,1.18,0,0,0-1.176-1.176Zm0,0" transform="translate(-412.843 42.74)" fill="#3e3a3a"/>
        <path id="Path_252" data-name="Path 252" d="M402.532-36.309h-.049a1.178,1.178,0,0,0-1.176,1.176v5.119a1.179,1.179,0,0,0,1.176,1.177h.049a1.179,1.179,0,0,0,1.176-1.177v-5.119a1.181,1.181,0,0,0-1.176-1.176Zm0,0" transform="translate(-401.307 42.74)" fill="#3e3a3a"/>
      </g>
    </g>
  </g>
</svg>
