<svg xmlns="http://www.w3.org/2000/svg" width="10.813" height="20" viewBox="0 0 10.813 20">
  <path id="Path_4" data-name="Path 4" d="M599.12,461.055l-2.594,0a4.555,4.555,0,0,0-4.8,4.922v2.27H589.12a.407.407,0,0,0-.407.407v3.289a.408.408,0,0,0,.407.407h2.608v8.3a.408.408,0,0,0,.408.407h3.4a.408.408,0,0,0,.408-.407v-8.3H599a.407.407,0,0,0,.408-.407l0-3.289a.412.412,0,0,0-.12-.288.407.407,0,0,0-.288-.119h-3.05v-1.924c0-.925.221-1.394,1.424-1.394h1.748a.407.407,0,0,0,.407-.407v-3.053a.408.408,0,0,0-.406-.409Zm0,0" transform="translate(-588.713 -461.051)" fill="#646161" opacity="0.8"/>
</svg>
