<svg xmlns="http://www.w3.org/2000/svg" width="20" height="20" viewBox="0 0 20 20">
  <g id="Group_13" data-name="Group 13" transform="translate(-986 -602)" opacity="0.8">
    <path id="Path_907" data-name="Path 907" d="M7,0h6a6.965,6.965,0,0,1,7,6.93v5.94a6.965,6.965,0,0,1-7,6.93H7a6.965,6.965,0,0,1-7-6.93V6.93A6.965,6.965,0,0,1,7,0Z" transform="translate(986 602)" fill="#3e3a3a"/>
    <g id="Group_13-2" data-name="Group 13" transform="translate(986 602.2)">
      <path id="Path_906" data-name="Path 906" d="M8.851,0H9.9a8.845,8.845,0,1,1,0,17.691H8.851A8.845,8.845,0,1,1,8.851,0Z" transform="translate(0.486 1.173)" fill="#3e3a3a"/>
      <path id="Path_9" data-name="Path 9" d="M446.336,433h-8.872A5.47,5.47,0,0,0,432,438.464v8.872a5.47,5.47,0,0,0,5.464,5.464h8.872a5.47,5.47,0,0,0,5.464-5.464v-8.872A5.47,5.47,0,0,0,446.336,433Zm3.707,14.336a3.711,3.711,0,0,1-3.707,3.707h-8.872a3.711,3.711,0,0,1-3.707-3.707v-8.872a3.711,3.711,0,0,1,3.707-3.707h8.872a3.711,3.711,0,0,1,3.707,3.707Zm0,0" transform="translate(-432 -433)" fill="#3e3a3a"/>
      <path id="Path_10" data-name="Path 10" d="M469.815,465.778a5.041,5.041,0,1,0,5.042,5.041,5.047,5.047,0,0,0-5.042-5.041Zm0,8.346a3.305,3.305,0,1,1,3.306-3.305,3.309,3.309,0,0,1-3.306,3.305Zm0,0" transform="translate(-459.915 -460.919)" fill="#fff"/>
      <path id="Path_11" data-name="Path 11" d="M528.442,455.6a1.3,1.3,0,1,0,.922.382,1.308,1.308,0,0,0-.922-.382Zm0,0" transform="translate(-513.236 -452.299)" fill="#fff"/>
    </g>
  </g>
</svg>
