<svg xmlns="http://www.w3.org/2000/svg" xmlns:xlink="http://www.w3.org/1999/xlink" width="16.552" height="20" viewBox="0 0 16.552 20">
  <defs>
    <clipPath id="clip-path">
      <rect id="Rectangle_110" data-name="Rectangle 110" width="16.552" height="20" fill="#3e3a3a"/>
    </clipPath>
  </defs>
  <g id="Group_35204" data-name="Group 35204" transform="translate(-341.104 47.885)">
    <g id="Group_282" data-name="Group 282" transform="translate(341.103 -47.884)">
      <g id="Group_281" data-name="Group 281" clip-path="url(#clip-path)">
        <path id="Path_248" data-name="Path 248" d="M357.055-33.428c-.051.151-.1.31-.161.468a12.138,12.138,0,0,1-2.131,3.576,4.9,4.9,0,0,1-.585.576,2.311,2.311,0,0,1-1.441.579,2.915,2.915,0,0,1-1.191-.216c-.278-.113-.549-.239-.829-.342a3.708,3.708,0,0,0-2.716.068c-.323.126-.641.269-.972.38a2.284,2.284,0,0,1-1.18.1,2.28,2.28,0,0,1-.946-.439,5.34,5.34,0,0,1-.932-.921,12.6,12.6,0,0,1-2.632-5.466,9.99,9.99,0,0,1-.218-2.657,6.288,6.288,0,0,1,.887-3.017,4.777,4.777,0,0,1,3.071-2.227,3.881,3.881,0,0,1,2.352.183c.4.153.808.307,1.213.458a1.526,1.526,0,0,0,1.118,0c.414-.159.827-.315,1.242-.468a4.9,4.9,0,0,1,1.309-.318,4.932,4.932,0,0,1,1.977.247,4.337,4.337,0,0,1,2.206,1.625l.041.062a4.355,4.355,0,0,0-2.093,4.036,4.283,4.283,0,0,0,2.613,3.715Zm-7.9-9.9a2.986,2.986,0,0,0,1.2-.221A4.369,4.369,0,0,0,353-47.523c0-.113-.008-.229-.014-.361-.18.027-.344.04-.5.078a4.391,4.391,0,0,0-2.912,2.188,3.75,3.75,0,0,0-.525,2.182c0,.084.034.105.113.105Zm0,0" transform="translate(-341.104 47.884)" fill="#3e3a3a"/>
      </g>
    </g>
  </g>
</svg>
