<svg xmlns="http://www.w3.org/2000/svg" width="22.147" height="18" viewBox="0 0 22.147 18">
  <path id="Path_8" data-name="Path 8" d="M187.244,258.066a12.841,12.841,0,0,0,12.929-12.929q0-.3-.013-.587a9.248,9.248,0,0,0,2.267-2.353,9.065,9.065,0,0,1-2.61.716,4.561,4.561,0,0,0,2-2.513,9.113,9.113,0,0,1-2.885,1.1,4.548,4.548,0,0,0-7.744,4.144,12.9,12.9,0,0,1-9.367-4.748,4.548,4.548,0,0,0,1.407,6.066,4.507,4.507,0,0,1-2.058-.568c0,.019,0,.038,0,.058a4.545,4.545,0,0,0,3.646,4.455,4.542,4.542,0,0,1-2.052.078,4.549,4.549,0,0,0,4.245,3.156,9.116,9.116,0,0,1-5.644,1.945,9.242,9.242,0,0,1-1.084-.063,12.863,12.863,0,0,0,6.966,2.041" transform="translate(-180.279 -240.066)" fill="#646161" opacity="0.8"/>
</svg>
