<svg xmlns="http://www.w3.org/2000/svg" width="511.984" height="511.984" viewBox="0 0 511.984 511.984">
  <g id="editing" transform="translate(0 0)">
    <path id="Path_9992" data-name="Path 9992" d="M415,221.984a15,15,0,0,0-15,15v220a25.028,25.028,0,0,1-25,25H55a25.028,25.028,0,0,1-25-25v-320a25.028,25.028,0,0,1,25-25H275a15,15,0,0,0,0-30H55a55.062,55.062,0,0,0-55,55v320a55.062,55.062,0,0,0,55,55H375a55.062,55.062,0,0,0,55-55v-220a15,15,0,0,0-15-15Z" fill="#747474"/>
    <path id="Path_9993" data-name="Path 9993" d="M501.749,38.52,473.464,10.235a35.04,35.04,0,0,0-49.5,0L197.694,236.509a15.01,15.01,0,0,0-4.1,7.665l-14.143,70.711a15,15,0,0,0,17.65,17.651l70.711-14.143a15,15,0,0,0,7.665-4.1L501.749,88.017h0a35.04,35.04,0,0,0,0-49.5ZM257.473,289.866l-44.194,8.84,8.84-44.194L406.289,70.339l35.356,35.356ZM480.536,66.8,462.858,84.482,427.5,49.126l17.677-17.677a5.006,5.006,0,0,1,7.072,0l28.284,28.285A5,5,0,0,1,480.536,66.8Z" fill="#747474"/>
  </g>
</svg>
