<?xml version="1.0" encoding="utf-8"?>
<svg version="1.1" xmlns:xlink="http://www.w3.org/1999/xlink" width="113px" height="113px" xmlns="http://www.w3.org/2000/svg">
  <g transform="matrix(1 0 0 1 -903 -861 )">
    <path d="M 113 56.5  C 113 25.29774098596769  87.70541925650403 0  56.5 0  C 25.29774098596769 0  0 25.29774098596769  0 56.5  C 0 87.70581428681298  25.29774098596769 113  56.5 113  C 87.70581428681298 113  113 87.70936955959364  113 56.5  Z M 102.40607717423984 56.500000000000014  C 102.40607717423984 81.85423032014937  81.85423032014936 102.40607717423984  56.5 102.40607717423984  C 31.145769679850652 102.40607717423984  10.593922825760165 81.85423032014934  10.593922825760165 56.5  C 10.593922825760165 31.145769679850655  31.145769679850655 10.593922825760172  56.5 10.593922825760172  C 81.85423032014934 10.593922825760172  102.40607717423984 31.145769679850662  102.40607717423984 56.500000000000014  Z M 63 30.30158990959749  C 63.61173065225448 26.971484405042407  60.451488180553326 24.778671159990772  56.50355527278067 24.778671159990772  C 52.45686478776735 24.778671159990772  49.3949848629979 26.89050319170507  50 30.30158990959749  L 50 61.588385409747815  C 49.3949848629979 65.0030274004209  52.456469757458386 67.10774888657387  56.50355527278067 67.10774888657387  C 60.451488180553326 67.10774888657387  63.612125682563445 64.91493564152223  63 61.588385409747815  L 63 30.30158990959749  Z M 63.552081075601116 81.21151600746714  C 63.55168604529215 77.32007243387613  60.391443573591 74.15627468939432  56.50355527278067 74.15627468939432  C 52.61566697197033 74.15627468939432  49.45147419717956 77.3204674641851  49.45147419717956 81.21151600746714  C 49.45147419717956 85.09584903549681  52.61566697197033 88.26004181028759  56.50355527278067 88.26004181028759  C 60.39144357359101 88.26004181028759  63.552081075601116 85.09584903549681  63.552081075601116 81.21151600746714  Z " fill-rule="nonzero" fill="#ffcc00" stroke="none" transform="matrix(1 0 0 1 903 861 )" />
  </g>
</svg>