<svg xmlns="http://www.w3.org/2000/svg" width="140.266" height="210.08" viewBox="0 0 140.266 210.08">
  <g id="Group_34036" data-name="Group 34036" transform="translate(4349 1837)">
    <g id="normal_u367" transform="translate(-4349 -1837)">
      <path id="Path_9990" data-name="Path 9990" d="M140.415,70.888C140.409,31.74,109.017,0,70.3,0S.148,31.74.148,70.888c0,20.038,19.315,55.919,19.315,55.919L67.716,210.08l50.335-82.309S140.415,93.54,140.415,70.888Zm-30.293-1.82c0,22.591-17.988,40.876-40.155,40.876S29.823,91.659,29.823,69.068c0-22.555,17.965-40.834,40.143-40.834S110.121,46.507,110.121,69.068Z" transform="translate(-0.148)" fill="#fc0"/>
    </g>
    <g id="normal_u368" transform="translate(-4304.295 -1791.577)">
      <path id="Path_9991" data-name="Path 9991" d="M34.233,18.469V.81H18.888v17.66H1.022V33.993H18.888V52.175H34.233V33.993H51.878V18.469Z" transform="translate(-1.022 -0.809)" fill="#fc0"/>
    </g>
  </g>
</svg>
